<svg xmlns="http://www.w3.org/2000/svg" version="1.1" xmlnsXlink="http://www.w3.org/1999/xlink" xmlnsSvgjs="http://svgjs.dev/svgjs" width="1000" height="623" viewBox="0 0 1000 623"><g transform="matrix(1,0,0,1,-0.6060606060606233,0.2522267206477409)"><svg viewBox="0 0 396 247" data-background-color="#8dbdff" preserveAspectRatio="xMidYMid meet" height="623" width="1000" xmlns="http://www.w3.org/2000/svg" xmlnsXlink="http://www.w3.org/1999/xlink"><g id="tight-bounds" transform="matrix(1,0,0,1,0.2400000000000091,-0.09999999999999432)"><svg viewBox="0 0 395.52 247.2" height="247.2" width="395.52"><g><svg></svg></g><g><svg viewBox="0 0 395.52 247.2" height="247.2" width="395.52"><g transform="matrix(1,0,0,1,39.55199999999999,101.08150141694853)"><svg viewBox="0 0 316.416 45.036997166102935" height="45.036997166102935" width="316.416"><g><svg viewBox="0 0 316.416 45.036997166102935" height="45.036997166102935" width="316.416"><g><svg viewBox="0 0 316.416 45.036997166102935" height="45.036997166102935" width="316.416"><g><svg viewBox="0 0 316.416 45.036997166102935" height="45.036997166102935" width="316.416"><g><svg viewBox="0 0 316.416 45.036997166102935" height="45.036997166102935" width="316.416"><g><svg viewBox="0 0 316.416 45.036997166102935" height="45.036997166102935" width="316.416"><g transform="matrix(1,0,0,1,0,0)"><svg width="316.416" viewBox="2.1700000762939453 -37.5 267.04998779296875 38.0099983215332" height="45.036997166102935" data-palette-color="#374151"><path d="M21.66-9.28L21.66-9.28Q21.66-8.33 21.26-7.53 20.87-6.74 20.14-6.18L20.14-6.18Q19.41-5.62 18.35-5.3 17.29-4.98 15.92-4.98L15.92-4.98Q14.38-4.98 13.1-5.32 11.82-5.66 10.91-6.4L10.91-6.4Q9.99-7.13 9.47-8.28 8.96-9.42 8.91-11.04L8.91-11.04 2.17-11.04Q2.17-8.28 3.23-6.23 4.3-4.17 6.13-2.66L6.13-2.66Q8.06-1.12 10.66-0.33 13.26 0.46 15.92 0.46L15.92 0.46Q18.63 0.46 20.92-0.18 23.22-0.83 24.88-2.1L24.88-2.1Q26.54-3.34 27.48-5.16 28.42-6.98 28.42-9.33L28.42-9.33Q28.42-12.04 27.17-14.11 25.93-16.19 23.83-17.75L23.83-17.75Q22.44-18.7 20.78-19.43 19.12-20.17 17.29-20.68L17.29-20.68Q15.58-21.14 14.22-21.68 12.87-22.22 11.91-22.88L11.91-22.88Q10.96-23.51 10.46-24.32 9.96-25.12 9.96-26.12L9.96-26.12Q9.96-27.08 10.34-27.89 10.72-28.71 11.45-29.32L11.45-29.32Q12.18-29.91 13.24-30.24 14.31-30.57 15.67-30.57L15.67-30.57Q17.16-30.57 18.27-30.16 19.38-29.76 20.14-29.05L20.14-29.05Q20.87-28.32 21.25-27.32 21.63-26.32 21.68-25.12L21.68-25.12 28.37-25.12Q28.37-27.51 27.44-29.52 26.51-31.52 24.85-32.98L24.85-32.98Q23.19-34.42 20.89-35.23 18.58-36.04 15.8-36.04L15.8-36.04Q13.11-36.04 10.82-35.34 8.52-34.64 6.84-33.35L6.84-33.35Q5.15-32.06 4.2-30.22 3.25-28.39 3.25-26.15L3.25-26.15Q3.25-24.19 3.97-22.53 4.69-20.87 6.1-19.51L6.1-19.51Q7.52-18.14 9.75-16.99 11.99-15.84 14.94-15.04L14.94-15.04Q16.85-14.53 18.13-13.93 19.41-13.33 20.21-12.62L20.21-12.62Q21-11.89 21.33-11.06 21.66-10.23 21.66-9.28ZM45.9-26.42L45.9-32.89 39.11-32.89 39.11-26.42 33.08-26.42 33.08-21.41 39.11-21.41 39.11-9.4Q39.11-6.79 39.79-4.92 40.48-3.05 41.75-1.86L41.75-1.86Q42.99-0.63 44.76-0.06 46.53 0.51 48.7 0.51L48.7 0.51Q49.83 0.51 50.99 0.4 52.15 0.29 53.22 0.1L53.22 0.1Q54.29-0.1 55.25-0.4 56.2-0.71 56.91-1.12L56.91-1.12 56.25-5.79Q55.78-5.66 55.14-5.54 54.49-5.42 53.76-5.32L53.76-5.32Q53-5.2 52.18-5.13 51.36-5.05 50.58-5.05L50.58-5.05Q49.51-5.05 48.64-5.3 47.78-5.54 47.17-6.13L47.17-6.13Q46.56-6.69 46.23-7.65 45.9-8.62 45.9-10.06L45.9-10.06 45.9-21.41 55.76-21.41 55.76-26.42 45.9-26.42ZM79.95 0L79.95 0 86.84 0 86.84-0.42Q86.32-1.42 86.05-2.81 85.79-4.2 85.79-6.32L85.79-6.32 85.79-17.65Q85.79-19.95 84.93-21.69 84.08-23.44 82.56-24.58L82.56-24.58Q81.05-25.73 78.99-26.32 76.92-26.9 74.53-26.9L74.53-26.9Q71.87-26.9 69.81-26.23 67.74-25.56 66.33-24.41L66.33-24.41Q64.89-23.27 64.14-21.75 63.4-20.24 63.4-18.55L63.4-18.55 70.19-18.55Q70.19-19.26 70.39-19.85 70.6-20.43 71.04-20.85L71.04-20.85Q71.53-21.31 72.31-21.57 73.09-21.83 74.16-21.83L74.16-21.83Q75.39-21.83 76.3-21.52 77.22-21.22 77.83-20.65L77.83-20.65Q78.41-20.12 78.71-19.37 79-18.63 79-17.7L79-17.7 79-16.14 75.21-16.14Q72.29-16.14 70.03-15.61 67.77-15.09 66.23-14.09L66.23-14.09Q64.52-12.99 63.67-11.29 62.81-9.59 62.81-7.4L62.81-7.4Q62.81-5.69 63.5-4.24 64.18-2.78 65.4-1.73L65.4-1.73Q66.62-0.68 68.32-0.1 70.01 0.49 72.04 0.49L72.04 0.49Q73.29 0.49 74.36 0.26 75.43 0.02 76.34-0.39L76.34-0.39Q77.22-0.78 77.95-1.32 78.68-1.86 79.24-2.47L79.24-2.47Q79.37-1.76 79.54-1.12 79.71-0.49 79.95 0ZM73.48-4.76L73.48-4.76Q72.53-4.76 71.81-4.99 71.09-5.22 70.6-5.62L70.6-5.62Q70.11-6.03 69.86-6.63 69.6-7.23 69.6-7.93L69.6-7.93Q69.6-8.84 69.94-9.61 70.28-10.38 70.99-10.94L70.99-10.94Q71.7-11.47 72.82-11.78 73.95-12.08 75.53-12.08L75.53-12.08 79-12.08 79-7.54Q78.71-7.03 78.19-6.53 77.68-6.03 76.97-5.64L76.97-5.64Q76.26-5.25 75.39-5 74.51-4.76 73.48-4.76ZM105.9-26.42L105.9-32.89 99.11-32.89 99.11-26.42 93.08-26.42 93.08-21.41 99.11-21.41 99.11-9.4Q99.11-6.79 99.8-4.92 100.48-3.05 101.75-1.86L101.75-1.86Q103-0.63 104.77-0.06 106.54 0.51 108.71 0.51L108.71 0.51Q109.83 0.51 110.99 0.4 112.15 0.29 113.22 0.1L113.22 0.1Q114.3-0.1 115.25-0.4 116.2-0.71 116.91-1.12L116.91-1.12 116.25-5.79Q115.79-5.66 115.14-5.54 114.49-5.42 113.76-5.32L113.76-5.32Q113.01-5.2 112.19-5.13 111.37-5.05 110.59-5.05L110.59-5.05Q109.51-5.05 108.65-5.3 107.78-5.54 107.17-6.13L107.17-6.13Q106.56-6.69 106.23-7.65 105.9-8.62 105.9-10.06L105.9-10.06 105.9-21.41 115.76-21.41 115.76-26.42 105.9-26.42ZM138.37-29.96L149.33-29.96 149.33-35.55 120.67-35.55 120.67-29.96 131.48-29.96 131.48 0 138.37 0 138.37-29.96ZM172.42-26.9L172.42-26.9Q169.76-26.9 167.52-25.62 165.27-24.34 163.66-22.09L163.66-22.09 163.61-22.68 163.34-26.42 157.02-26.42 157.02 0 163.81 0 163.81-15.87Q164.27-16.99 164.98-17.82 165.69-18.65 166.69-19.19L166.69-19.19Q167.52-19.65 168.58-19.89 169.64-20.12 170.96-20.12L170.96-20.12Q172.23-20.12 173.63-19.96 175.04-19.8 176.38-19.48L176.38-19.48 177.38-26.25Q176.57-26.49 175.27-26.7 173.96-26.9 172.42-26.9ZM199.96 0L199.96 0 206.85 0 206.85-0.42Q206.33-1.42 206.06-2.81 205.8-4.2 205.8-6.32L205.8-6.32 205.8-17.65Q205.8-19.95 204.94-21.69 204.09-23.44 202.57-24.58L202.57-24.58Q201.06-25.73 199-26.32 196.93-26.9 194.54-26.9L194.54-26.9Q191.88-26.9 189.82-26.23 187.75-25.56 186.34-24.41L186.34-24.41Q184.9-23.27 184.15-21.75 183.41-20.24 183.41-18.55L183.41-18.55 190.19-18.55Q190.19-19.26 190.4-19.85 190.61-20.43 191.05-20.85L191.05-20.85Q191.54-21.31 192.32-21.57 193.1-21.83 194.17-21.83L194.17-21.83Q195.4-21.83 196.31-21.52 197.23-21.22 197.84-20.65L197.84-20.65Q198.42-20.12 198.72-19.37 199.01-18.63 199.01-17.7L199.01-17.7 199.01-16.14 195.22-16.14Q192.29-16.14 190.04-15.61 187.78-15.09 186.24-14.09L186.24-14.09Q184.53-12.99 183.68-11.29 182.82-9.59 182.82-7.4L182.82-7.4Q182.82-5.69 183.51-4.24 184.19-2.78 185.41-1.73L185.41-1.73Q186.63-0.68 188.33-0.1 190.02 0.49 192.05 0.49L192.05 0.49Q193.3 0.49 194.37 0.26 195.44 0.02 196.35-0.39L196.35-0.39Q197.23-0.78 197.96-1.32 198.69-1.86 199.25-2.47L199.25-2.47Q199.37-1.76 199.55-1.12 199.72-0.49 199.96 0ZM193.49-4.76L193.49-4.76Q192.54-4.76 191.82-4.99 191.1-5.22 190.61-5.62L190.61-5.62Q190.12-6.03 189.87-6.63 189.61-7.23 189.61-7.93L189.61-7.93Q189.61-8.84 189.95-9.61 190.29-10.38 191-10.94L191-10.94Q191.71-11.47 192.83-11.78 193.95-12.08 195.54-12.08L195.54-12.08 199.01-12.08 199.01-7.54Q198.72-7.03 198.2-6.53 197.69-6.03 196.98-5.64L196.98-5.64Q196.27-5.25 195.4-5 194.52-4.76 193.49-4.76ZM225.15-4.93L225.15-4.93Q223.52-4.93 222.46-5.59 221.39-6.25 220.78-7.35L220.78-7.35Q220.15-8.42 219.9-9.85 219.66-11.28 219.66-12.82L219.66-12.82 219.66-13.55Q219.66-15.06 219.92-16.48 220.17-17.9 220.81-18.99L220.81-18.99Q221.42-20.09 222.47-20.75 223.52-21.41 225.13-21.41L225.13-21.41Q226.23-21.41 227.16-21.03 228.08-20.65 228.74-20.02L228.74-20.02Q229.4-19.38 229.74-18.51 230.09-17.63 230.04-16.65L230.04-16.65 236.43-16.65Q236.48-18.99 235.65-20.89 234.82-22.78 233.33-24.12L233.33-24.12Q231.82-25.44 229.74-26.17 227.67-26.9 225.23-26.9L225.23-26.9Q222.17-26.9 219.87-25.85 217.56-24.8 216-23L216-23Q214.44-21.19 213.65-18.76 212.87-16.33 212.87-13.55L212.87-13.55 212.87-12.82Q212.87-10.03 213.67-7.6 214.46-5.18 216.02-3.37L216.02-3.37Q217.56-1.56 219.88-0.52 222.2 0.51 225.28 0.51L225.28 0.51Q227.55 0.51 229.58-0.21 231.62-0.93 233.16-2.2L233.16-2.2Q234.7-3.47 235.59-5.22 236.48-6.98 236.43-9.03L236.43-9.03 230.04-9.03Q230.09-8.11 229.71-7.35 229.33-6.59 228.64-6.05L228.64-6.05Q227.96-5.52 227.06-5.22 226.15-4.93 225.15-4.93ZM250.32-8.06L253.4-10.91 260.89 0 269.22 0 257.87-15.41 267.83-26.42 259.67-26.42 252.37-18.41 250.32-16.06 250.32-37.5 243.53-37.5 243.53 0 250.32 0 250.32-8.06Z" opacity="1" transform="matrix(1,0,0,1,0,0)" fill="#374151" class="undefined-text-0" data-fill-palette-color="primary" id="text-0"></path></svg></g></svg></g></svg></g></svg></g><g></g></svg></g></svg></g></svg></g><g mask="url(#c42d3757-553f-44bf-b738-4f6e701d72dc)"><g transform="matrix(2.7244444444444444, 0, 0, 2.7244444444444444, 75.15863852606878, 1)"><svg xmlns="http://www.w3.org/2000/svg" xmlnsXlink="http://www.w3.org/1999/xlink" version="1.1" x="0" y="0" viewBox="4.9670000076293945 5 90.0009994506836 90" enable-background="new 0 0 100 100" xml:space="preserve" height="90" width="90.0009994506836" class="icon-none" data-fill-palette-color="accent" id="none"><g fill="#374151" data-fill-palette-color="accent"><polygon points="81.588,69.219 76.042,77.733 49.901,5 30.566,58.797 24.486,43.546 4.967,95 17.555,95 45,95 64.794,95 82.249,95    94.968,95  " fill="#374151" data-fill-palette-color="accent"></polygon></g></svg></g></g></svg></g><defs><mask id="909ee91c-890b-4f2e-b159-a3532eb252ee"><rect width="640" height="400" fill="white"></rect><rect width="348.05760000000004" height="66.30130545207277" fill="black" x="145.97119999999998" y="166.84934727396362" id="transform-me" transform="matrix(1,0,0,1,-122.24000000000001,-76.4)"></rect></mask><mask id="c42d3757-553f-44bf-b738-4f6e701d72dc"><rect width="640" height="400" fill="white"></rect><rect width="348.05760000000004" height="66.30130545207277" fill="black" x="145.97119999999998" y="166.84934727396362" id="transform-me" transform="matrix(1,0,0,1,-122.24000000000001,-76.4)"></rect></mask></defs></svg><rect width="395.52" height="247.2" fill="none" stroke="none" visibility="hidden"></rect></g></svg></g></svg>
